<svg width="400" height="400" viewBox="0 0 400 400" fill="none" xmlns="http://www.w3.org/2000/svg">
<rect width="400" height="400" fill="white"/>
<path d="M57.4659 144.724H70.3001V154.425L69.7957 156.074V167.17L70.3001 170.403V191.517H57.4659V144.724ZM66.377 162.922C66.8253 158.991 67.7967 155.588 69.2913 152.713C70.8231 149.797 72.7847 147.556 75.1759 145.993C77.5671 144.429 80.2759 143.647 83.3023 143.647C86.4408 143.647 89.1869 144.45 91.5408 146.056C93.932 147.62 95.7815 149.86 97.0892 152.777C98.4342 155.651 99.1068 159.033 99.1068 162.922C99.1068 166.726 98.4342 170.086 97.0892 173.003C95.7815 175.877 93.932 178.118 91.5408 179.724C89.1869 181.33 86.4408 182.133 83.3023 182.133C80.2386 182.133 77.5111 181.351 75.1199 179.787C72.766 178.181 70.8418 175.941 69.3473 173.066C67.8528 170.15 66.8627 166.768 66.377 162.922ZM86.1605 162.922C86.1605 161.315 85.8616 159.899 85.2638 158.673C84.7034 157.405 83.9001 156.412 82.8539 155.693C81.8078 154.975 80.6122 154.616 79.2671 154.616C77.8847 154.616 76.5583 154.975 75.288 155.693C74.0176 156.412 72.8968 157.405 71.9253 158.673C70.9913 159.899 70.3001 161.315 69.8517 162.922C70.3001 164.528 70.9913 165.944 71.9253 167.17C72.8968 168.396 74.0176 169.368 75.288 170.086C76.5583 170.805 77.8847 171.164 79.2671 171.164C80.6122 171.164 81.8078 170.805 82.8539 170.086C83.9001 169.368 84.7034 168.396 85.2638 167.17C85.8616 165.944 86.1605 164.528 86.1605 162.922Z" fill="#0F5EAC"/>
<path d="M122.882 182.133C118.921 182.133 115.39 181.33 112.289 179.724C109.188 178.118 106.741 175.856 104.948 172.94C103.154 170.023 102.257 166.62 102.257 162.731C102.257 158.927 103.117 155.588 104.836 152.713C106.592 149.839 108.964 147.62 111.953 146.056C114.98 144.45 118.361 143.647 122.097 143.647C126.02 143.647 129.364 144.576 132.129 146.436C134.894 148.254 137.005 150.854 138.462 154.235C139.957 157.617 140.704 161.59 140.704 166.155H112.738V158.991H133.306L129.551 161.4C129.364 159.582 128.953 158.082 128.318 156.898C127.72 155.672 126.898 154.742 125.852 154.108C124.843 153.474 123.629 153.157 122.209 153.157C120.64 153.157 119.295 153.538 118.174 154.299C117.091 155.059 116.25 156.116 115.652 157.469C115.092 158.821 114.811 160.364 114.811 162.097C114.811 164.253 115.222 166.071 116.044 167.55C116.904 169.03 118.193 170.171 119.911 170.974C121.63 171.735 123.76 172.115 126.3 172.115C128.729 172.115 131.102 171.756 133.418 171.037C135.772 170.319 137.92 169.262 139.863 167.867V176.363C137.584 178.223 134.95 179.661 131.961 180.675C128.972 181.647 125.945 182.133 122.882 182.133Z" fill="#0F5EAC"/>
<path d="M145.254 181.055V144.724H157.92V173.003L155.398 172.052L170.53 144.724H186.951V181.055H174.341V151.826L176.807 152.84L161.226 181.055H145.254ZM165.654 141.871C161.581 141.871 158.312 140.772 155.846 138.574C153.38 136.376 151.848 133.185 151.251 129H161.002C161.264 130.564 161.787 131.769 162.572 132.614C163.393 133.417 164.421 133.819 165.654 133.819C166.962 133.819 168.008 133.417 168.792 132.614C169.577 131.769 170.1 130.564 170.362 129H180.113C179.516 133.185 177.965 136.376 175.462 138.574C172.996 140.772 169.726 141.871 165.654 141.871Z" fill="#0F5EAC"/>
<path d="M191.975 181.055L194.049 162.858L191.975 144.724H219.045C222.146 144.724 224.63 145.549 226.499 147.197C228.367 148.803 229.301 151.002 229.301 153.791C229.301 156.412 228.348 158.547 226.443 160.195C224.574 161.844 221.978 162.858 218.652 163.239L219.437 161.019C223.285 161.231 226.218 162.161 228.236 163.809C230.254 165.458 231.262 167.74 231.262 170.657C231.262 173.827 230.216 176.363 228.124 178.266C226.032 180.125 223.248 181.055 219.773 181.055H191.975ZM204.305 178.139L199.373 172.242H215.29C216.299 172.242 217.065 171.989 217.588 171.481C218.111 170.932 218.372 170.192 218.372 169.262C218.372 168.332 218.092 167.592 217.532 167.043C216.971 166.493 216.13 166.219 215.01 166.219H201.839V159.054H213.608C214.543 159.054 215.252 158.8 215.738 158.293C216.224 157.786 216.467 157.11 216.467 156.264C216.467 155.419 216.224 154.764 215.738 154.299C215.29 153.791 214.617 153.538 213.721 153.538H199.429L204.305 147.641L206.211 162.858L204.305 178.139Z" fill="#0F5EAC"/>
<path d="M68.955 256C66.4143 256 64.1726 255.641 62.2297 254.922C60.3242 254.246 58.4374 253.147 56.5692 251.625V241.734C58.4374 243.087 60.1747 244.059 61.7813 244.651C63.3879 245.242 65.144 245.538 67.0495 245.538C68.6187 245.538 69.9825 245.158 71.1407 244.397C72.3363 243.636 73.3264 242.22 74.1111 240.149L85.7122 208.129H99.3309L84.3111 244.587C83.1528 247.419 81.7331 249.681 80.0517 251.371C78.4078 253.062 76.633 254.246 74.7275 254.922C72.822 255.641 70.8979 256 68.955 256ZM68.2264 240.339L55 208.129H69.1231L80.5561 240.339H68.2264Z" fill="#E93250"/>
<path d="M139.332 228.799C139.033 232.139 137.968 235.076 136.137 237.613C134.307 240.107 131.915 242.051 128.964 243.446C126.05 244.841 122.762 245.538 119.1 245.538C115.102 245.538 111.553 244.735 108.452 243.129C105.388 241.523 102.997 239.261 101.278 236.344C99.5593 233.428 98.7 230.089 98.7 226.327C98.7 222.48 99.5593 219.119 101.278 216.245C102.997 213.371 105.388 211.13 108.452 209.524C111.553 207.876 115.102 207.051 119.1 207.051C122.762 207.051 126.05 207.749 128.964 209.144C131.915 210.539 134.307 212.483 136.137 214.977C137.968 217.471 139.033 220.409 139.332 223.79H126.61C126.236 221.804 125.377 220.303 124.032 219.289C122.687 218.232 121.043 217.703 119.1 217.703C117.606 217.703 116.298 218.042 115.177 218.718C114.056 219.352 113.197 220.324 112.599 221.635C112.001 222.903 111.702 224.467 111.702 226.327C111.702 228.186 112.001 229.75 112.599 231.018C113.197 232.287 114.056 233.259 115.177 233.935C116.298 234.569 117.606 234.886 119.1 234.886C121.043 234.886 122.687 234.337 124.032 233.238C125.377 232.096 126.236 230.617 126.61 228.799H139.332Z" fill="#E93250"/>
<path d="M148.391 208.129H184.316V244.46H171.482V212.251L177.31 218.845H154.78L160.217 213.138C160.441 215.632 160.609 217.83 160.721 219.732C160.833 221.635 160.889 223.368 160.889 224.932C160.889 232.117 159.881 237.317 157.863 240.529C155.883 243.699 152.632 245.285 148.111 245.285C146.766 245.285 145.496 245.116 144.3 244.777C143.142 244.481 141.984 243.974 140.825 243.256V232.984C141.498 233.28 142.152 233.512 142.787 233.681C143.46 233.808 144.057 233.872 144.58 233.872C146.299 233.872 147.513 233.026 148.223 231.336C148.933 229.645 149.288 226.855 149.288 222.966C149.288 221.022 149.213 218.824 149.064 216.372C148.915 213.878 148.69 211.13 148.391 208.129Z" fill="#E93250"/>
<path d="M201.622 256C199.081 256 196.84 255.641 194.897 254.922C192.991 254.246 191.104 253.147 189.236 251.625V241.734C191.104 243.087 192.842 244.059 194.448 244.651C196.055 245.242 197.811 245.538 199.717 245.538C201.286 245.538 202.649 245.158 203.808 244.397C205.003 243.636 205.993 242.22 206.778 240.149L218.379 208.129H231.998L216.978 244.587C215.82 247.419 214.4 249.681 212.719 251.371C211.075 253.062 209.3 254.246 207.395 254.922C205.489 255.641 203.565 256 201.622 256ZM200.893 240.339L187.667 208.129H201.79L213.223 240.339H200.893Z" fill="#E93250"/>
<path d="M263.6 208.129V218.972H241.799L247.627 212.377V244.46H234.793V208.129H263.6Z" fill="#E93250"/>
<path d="M267.303 244.46V208.129H279.969V236.408L277.447 235.457L292.579 208.129H309V244.46H296.39V215.231L298.856 216.245L283.276 244.46H267.303Z" fill="#E93250"/>
<path d="M160.5 50.0936C185.252 35.8032 215.748 35.8032 240.5 50.0936L309.89 90.1561C334.642 104.447 349.89 130.857 349.89 159.438V239.562C349.889 268.143 334.641 294.553 309.89 308.844L240.5 348.906C215.748 363.197 185.252 363.197 160.5 348.906L91.1103 308.844C79.2339 301.987 69.5475 292.338 62.6816 281C55.8158 269.661 79.4113 276.278 83.6133 281C87.8152 285.722 92.7937 289.816 98.4307 293.07L170.5 334.68C189.064 345.398 211.936 345.398 230.5 334.68L302.569 293.07C321.133 282.352 332.569 262.545 332.569 241.109V157.892C332.569 136.456 321.133 116.648 302.569 105.93L230.5 64.3202C211.936 53.6024 189.064 53.6024 170.5 64.3202L98.4307 105.93C92.3993 109.412 87.121 113.854 82.7422 119C78.3633 124.145 55.1898 130.771 62.0859 119C68.9821 107.229 78.8863 97.2138 91.1103 90.1561L160.5 50.0936Z" fill="url(#paint0_linear_2_9)"/>
<defs>
<linearGradient id="paint0_linear_2_9" x1="200.5" y1="27" x2="200.5" y2="372" gradientUnits="userSpaceOnUse">
<stop stop-color="#125FA9"/>
<stop offset="0.471968" stop-color="#7E497C"/>
<stop offset="0.504808" stop-color="#7E497C"/>
<stop offset="0.532862" stop-color="#7E497C"/>
<stop offset="1" stop-color="#E83350"/>
</linearGradient>
</defs>
</svg>
