<svg width="643" height="110" viewBox="0 0 643 110" fill="none" xmlns="http://www.w3.org/2000/svg">
<path d="M0.145313 26.9872H19.3947V43.6143L18.6381 46.4398V65.4577L19.3947 71.0001V107.189H0.145313V26.9872ZM13.5106 58.1766C14.1831 51.4388 15.6401 45.6066 17.8816 40.6801C20.1792 35.6811 23.1213 31.8413 26.7077 29.1606C30.2942 26.48 34.357 25.1397 38.8962 25.1397C43.6035 25.1397 47.7223 26.5162 51.2528 29.2693C54.8393 31.9499 57.6132 35.7897 59.5745 40.7888C61.5919 45.7153 62.6006 51.5113 62.6006 58.1766C62.6006 64.697 61.5919 70.4567 59.5745 75.4557C57.6132 80.3823 54.8393 84.2221 51.2528 86.9752C47.7223 89.7283 43.6035 91.1048 38.8962 91.1048C34.301 91.1048 30.2102 89.7645 26.6237 87.0839C23.0932 84.3308 20.2072 80.491 17.9657 75.5644C15.7241 70.5654 14.2391 64.7695 13.5106 58.1766ZM43.1832 58.1766C43.1832 55.4235 42.7349 52.9965 41.8382 50.8954C40.9977 48.722 39.7928 47.0194 38.2237 45.7878C36.6546 44.5561 34.8614 43.9403 32.844 43.9403C30.7706 43.9403 28.7812 44.5561 26.8759 45.7878C24.9705 47.0194 23.2894 48.722 21.8324 50.8954C20.4314 52.9965 19.3947 55.4235 18.7222 58.1766C19.3947 60.9297 20.4314 63.3567 21.8324 65.4577C23.2894 67.5588 24.9705 69.2251 26.8759 70.4567C28.7812 71.6884 30.7706 72.3042 32.844 72.3042C34.8614 72.3042 36.6546 71.6884 38.2237 70.4567C39.7928 69.2251 40.9977 67.5588 41.8382 65.4577C42.7349 63.3567 43.1832 60.9297 43.1832 58.1766Z" fill="#0F5EAC"/>
<path d="M98.2598 91.1048C92.3196 91.1048 87.024 89.7283 82.3727 86.9752C77.7215 84.2221 74.051 80.3461 71.3611 75.3471C68.6712 70.3481 67.3263 64.5159 67.3263 57.8506C67.3263 51.3301 68.6152 45.6066 71.193 40.6801C73.8268 35.7535 77.3853 31.9499 81.8684 29.2693C86.4075 26.5162 91.479 25.1397 97.0829 25.1397C102.967 25.1397 107.982 26.7336 112.129 29.9214C116.276 33.0367 119.442 37.4923 121.628 43.2883C123.87 49.0842 124.99 55.8944 124.99 63.719H83.0452V51.4388H113.895L108.263 55.5684C107.982 52.4531 107.366 49.8811 106.413 47.8526C105.517 45.7515 104.284 44.1576 102.715 43.0709C101.202 41.9842 99.3805 41.4408 97.251 41.4408C94.8974 41.4408 92.88 42.0928 91.1989 43.3969C89.5737 44.701 88.3128 46.5123 87.4162 48.8306C86.5756 51.149 86.1554 53.7934 86.1554 56.7638C86.1554 60.4587 86.7718 63.5741 88.0046 66.1098C89.2935 68.6455 91.2269 70.6016 93.8047 71.9782C96.3824 73.2823 99.5767 73.9343 103.387 73.9343C107.03 73.9343 110.588 73.3185 114.063 72.0869C117.593 70.8552 120.815 69.044 123.729 66.6532V81.2155C120.311 84.4032 116.36 86.8665 111.877 88.6053C107.394 90.2716 102.855 91.1048 98.2598 91.1048Z" fill="#0F5EAC"/>
<path d="M131.815 89.2573V26.9872H150.812V75.4557L147.029 73.8256L169.725 26.9872H194.354V89.2573H175.441V39.1586L179.14 40.8974L155.771 89.2573H131.815ZM162.412 22.0968C156.304 22.0968 151.4 20.2131 147.702 16.4458C144.003 12.6784 141.706 7.20849 140.809 0.0360107H155.435C155.827 2.71664 156.612 4.78144 157.789 6.23042C159.022 7.60696 160.563 8.29523 162.412 8.29523C164.373 8.29523 165.942 7.60696 167.119 6.23042C168.296 4.78144 169.081 2.71664 169.473 0.0360107H184.099C183.202 7.20849 180.877 12.6784 177.122 16.4458C173.424 20.2131 168.52 22.0968 162.412 22.0968Z" fill="#0F5EAC"/>
<path d="M201.891 89.2573L205.001 58.0679L201.891 26.9872H242.491C247.142 26.9872 250.868 28.3999 253.67 31.2254C256.472 33.9785 257.873 37.7459 257.873 42.5275C257.873 47.0194 256.444 50.6781 253.586 53.5036C250.784 56.3291 246.89 58.0679 241.902 58.72L243.079 54.9164C248.851 55.2786 253.25 56.8725 256.276 59.698C259.302 62.5235 260.815 66.4358 260.815 71.4348C260.815 76.8685 259.246 81.2155 256.108 84.4757C252.97 87.6635 248.795 89.2573 243.583 89.2573H201.891ZM220.383 84.2583L212.986 74.1517H236.859C238.372 74.1517 239.521 73.717 240.305 72.8476C241.09 71.9057 241.482 70.6379 241.482 69.044C241.482 67.4501 241.062 66.1822 240.221 65.2404C239.381 64.2986 238.12 63.8276 236.438 63.8276H216.685V51.5475H234.337C235.738 51.5475 236.803 51.1128 237.531 50.2434C238.26 49.374 238.624 48.2148 238.624 46.7658C238.624 45.3168 238.26 44.1939 237.531 43.3969C236.859 42.5275 235.85 42.0928 234.505 42.0928H213.07L220.383 31.9862L223.241 58.0679L220.383 84.2583Z" fill="#0F5EAC"/>
<path d="M282.112 109.036C278.301 109.036 274.939 108.42 272.025 107.189C269.167 106.029 266.337 104.146 263.535 101.538V84.5844C266.337 86.9027 268.943 88.5691 271.352 89.5834C273.762 90.5977 276.396 91.1048 279.254 91.1048C281.607 91.1048 283.653 90.4528 285.39 89.1487C287.183 87.8446 288.668 85.4175 289.845 81.8675L307.245 26.9872H327.671L305.144 89.4747C303.406 94.3288 301.277 98.2048 298.755 101.103C296.29 104.001 293.628 106.029 290.77 107.189C287.912 108.42 285.026 109.036 282.112 109.036ZM281.019 82.1935L261.181 26.9872H282.364L299.512 82.1935H281.019Z" fill="#E93250"/>
<path d="M387.667 62.4149C387.219 68.1384 385.622 73.1736 382.876 77.5206C380.13 81.7951 376.544 85.1277 372.116 87.5186C367.745 89.9094 362.814 91.1048 357.322 91.1048C351.326 91.1048 346.002 89.7283 341.351 86.9752C336.756 84.2221 333.169 80.3461 330.592 75.3471C328.014 70.3481 326.725 64.6246 326.725 58.1766C326.725 51.5837 328.014 45.824 330.592 40.8974C333.169 35.9709 336.756 32.1311 341.351 29.378C346.002 26.5525 351.326 25.1397 357.322 25.1397C362.814 25.1397 367.745 26.3351 372.116 28.7259C376.544 31.1168 380.13 34.4494 382.876 38.7239C385.622 42.9985 387.219 48.0337 387.667 53.8296H368.586C368.026 50.4245 366.737 47.8526 364.719 46.1138C362.702 44.3025 360.236 43.3969 357.322 43.3969C355.081 43.3969 353.119 43.9765 351.438 45.1357C349.757 46.2224 348.468 47.8888 347.571 50.1347C346.675 52.3082 346.227 54.9888 346.227 58.1766C346.227 61.3644 346.675 64.045 347.571 66.2185C348.468 68.3919 349.757 70.0583 351.438 71.2175C353.119 72.3042 355.081 72.8476 357.322 72.8476C360.236 72.8476 362.702 71.9057 364.719 70.0221C366.737 68.0659 368.026 65.5302 368.586 62.4149H387.667Z" fill="#E93250"/>
<path d="M401.255 26.9872H455.137V89.2573H435.887V34.051L444.629 45.3531H410.838L418.991 35.5724C419.328 39.8469 419.58 43.6143 419.748 46.8745C419.916 50.1347 420 53.1051 420 55.7858C420 68.1021 418.487 77.0134 415.461 82.5196C412.491 87.9533 407.616 90.6701 400.835 90.6701C398.817 90.6701 396.912 90.3803 395.119 89.8007C393.382 89.2936 391.644 88.4242 389.907 87.1925V69.5874C390.916 70.0945 391.897 70.493 392.849 70.7828C393.858 71.0001 394.755 71.1088 395.539 71.1088C398.117 71.1088 399.938 69.6598 401.003 66.7618C402.068 63.8639 402.6 59.0822 402.6 52.4169C402.6 49.0842 402.488 45.3168 402.264 41.1148C402.04 36.8403 401.703 32.1311 401.255 26.9872Z" fill="#E93250"/>
<path d="M481.093 109.036C477.283 109.036 473.921 108.42 471.006 107.189C468.149 106.029 465.319 104.146 462.517 101.538V84.5844C465.319 86.9027 467.924 88.5691 470.334 89.5834C472.744 90.5977 475.378 91.1048 478.235 91.1048C480.589 91.1048 482.635 90.4528 484.372 89.1487C486.165 87.8446 487.65 85.4175 488.827 81.8675L506.227 26.9872H526.653L504.125 89.4747C502.388 94.3288 500.259 98.2048 497.737 101.103C495.271 104.001 492.609 106.029 489.751 107.189C486.893 108.42 484.007 109.036 481.093 109.036ZM480.001 82.1935L460.163 26.9872H481.346L498.494 82.1935H480.001Z" fill="#E93250"/>
<path d="M574.051 26.9872V45.5704H541.353L550.095 34.2683V89.2573H530.845V26.9872H574.051Z" fill="#E93250"/>
<path d="M579.606 89.2573V26.9872H598.603V75.4557L594.82 73.8256L617.516 26.9872H642.145V89.2573H623.232V39.1586L626.931 40.8974L603.562 89.2573H579.606Z" fill="#E93250"/>
</svg>
